<svg xmlns="http://www.w3.org/2000/svg" width="105" height="105" viewBox="0 0 105 105">
  <g><path d="M11.62,29.42a6.4,6.4,0,0,1-4.7-1.92A6.37,6.37,0,0,1,5,22.81a6.51,6.51,0,0,1,1.92-4.7,6.33,6.33,0,0,1,4.7-2,6.38,6.38,0,0,1,4.71,2,6.46,6.46,0,0,1,2,4.7,6.33,6.33,0,0,1-2,4.69A6.45,6.45,0,0,1,11.62,29.42Zm68.3,57.31q-2.39,2.08-10.7,3.5a115.85,115.85,0,0,1-19.17,1.41,113.42,113.42,0,0,1-19.41-1.46q-8.37-1.46-10.56-3.64l3.07-11.68-1.37-7.64L17.5,59.78,13.37,29.52l2.38-.93L29.08,51.07l.29-26.76,3.31-.58,10.17,26.9L48.3,21.69h3.35L57.1,50.54,67.17,23.73l3.36.58.29,26.76L84.2,28.55l2.29,1.07-4,30.11-4.33,7.44-1.36,7.74ZM29.52,24.07a6.47,6.47,0,0,1-4.72-1.92,6.35,6.35,0,0,1-1.95-4.7,6.38,6.38,0,0,1,1.95-4.67,6.65,6.65,0,0,1,9.39,0,6.37,6.37,0,0,1,1.94,4.67,6.34,6.34,0,0,1-1.94,4.7A6.43,6.43,0,0,1,29.52,24.07ZM50,21.64a6.33,6.33,0,0,1-4.69-1.95A6.43,6.43,0,0,1,43.33,15a6.4,6.4,0,0,1,1.93-4.67A6.35,6.35,0,0,1,50,8.36a6.45,6.45,0,0,1,4.69,1.94,6.33,6.33,0,0,1,2,4.67A6.71,6.71,0,0,1,50,21.64Zm20.43,2.43a6.56,6.56,0,0,1-6.61-6.62,6.43,6.43,0,0,1,1.92-4.67,6.35,6.35,0,0,1,4.69-1.94,6.45,6.45,0,0,1,4.72,1.94,6.38,6.38,0,0,1,2,4.67,6.35,6.35,0,0,1-2,4.7A6.47,6.47,0,0,1,70.38,24.07Zm18,5.35a6.47,6.47,0,0,1-4.72-1.92,6.35,6.35,0,0,1-1.94-4.69,6.49,6.49,0,0,1,1.94-4.7,6.4,6.4,0,0,1,4.72-2,6.33,6.33,0,0,1,4.67,2,6.46,6.46,0,0,1,2,4.7,6.33,6.33,0,0,1-2,4.69A6.39,6.39,0,0,1,88.38,29.42Z"
style="fill-rule:nonzero;"
/>
<path d="M77.39,61.92A56.24,56.24,0,0,0,66,59.51a126.9,126.9,0,0,0-16.18-.95,128.49,128.49,0,0,0-15.86.9,56.63,56.63,0,0,0-11.33,2.36l2.43,4.43A54,54,0,0,1,35.7,64.5Q42.21,64,50,64t14.3.54a51.63,51.63,0,0,1,10.66,1.8ZM75.25,85.17l-1.46-5.74Q64.29,77.24,50,77.24a108.3,108.3,0,0,0-23.74,2.19l-1.56,5.79Q33.91,82.4,50,82.4a122.88,122.88,0,0,1,14.35.78A72,72,0,0,1,75.25,85.17ZM74,70.63Q65,68.14,50.15,68.15T26,70.68l.73,4.91q9.2-2.39,23.4-2.38t23.06,2.33Z" style="fill:#fff"
style="fill:white;fill-rule:nonzero;"
/>  </g>
</svg>
