<svg xmlns="http://www.w3.org/2000/svg" width="105" height="105" viewBox="0 0 105 105">
  <g><polygon points="57.39 13.36 66.52 13.36 66.52 6 81.24 6 81.24 26.15 69.31 35.33 69.31 61.01 78.45 70.15 78.45 81.16 86.67 81.16 86.67 94 13.33 94 13.33 81.16 21.55 81.16 21.55 70.15 30.74 61.01 30.74 35.33 18.81 26.15 18.81 6 33.48 6 33.48 13.36 42.67 13.36 42.67 6 57.39 6 57.39 13.36"
style="fill-rule:nonzero;"
/>
<path d="M50,21.63H22.52V24.1l3.92,3H73.66l3.82-3V21.63Zm0,47.66H27.79L25.31,71.6v3.11H74.74V71.6l-2.47-2.31Zm-24.72,11v5.48H74.74V80.3ZM50,30.71H31.22l3.23,2.53V36.3H65.61V33.24l3.22-2.53Zm0,29.34H34.45v2.47l-3.23,3.11H68.83l-3.22-3.11V60.05Z"
style="fill:white;fill-rule:nonzero;"
/>  </g>
</svg>
