<svg xmlns="http://www.w3.org/2000/svg" width="105" height="105" viewBox="0 0 105 105">
  <g><path d="M50,94H21a30.82,30.82,0,0,1,3.49-29.08A31.2,31.2,0,0,1,39,53.63a14.87,14.87,0,0,1-6.21-5.35,14.17,14.17,0,0,1-2.39-8.09,14.05,14.05,0,0,1,3.76-9.78,14.41,14.41,0,0,1,9.24-4.79A10.31,10.31,0,0,1,39.06,17a10.61,10.61,0,0,1,3.2-7.74,10.92,10.92,0,0,1,15.51,0A10.55,10.55,0,0,1,61,17a10.31,10.31,0,0,1-4.35,8.65,14.39,14.39,0,0,1,9.24,4.79A14.58,14.58,0,0,1,67.2,48.28,15.37,15.37,0,0,1,61,53.63,31.2,31.2,0,0,1,75.51,64.92a30,30,0,0,1,5.64,17.84A30.91,30.91,0,0,1,79.05,94Z"
style="fill-rule:nonzero;"
/>  </g>
</svg>
