<svg xmlns="http://www.w3.org/2000/svg" width="105" height="105" viewBox="0 0 105 105">
  <g>
    <path d="M52.85,15.51a37.5,37.5,0,0,1,15.37,4.28,40.45,40.45,0,0,1,12,9.61,56.62,56.62,0,0,1,6.57,9.93,63.33,63.33,0,0,1,4.94,12.31,77.83,77.83,0,0,1,2.67,15.87q.54,8.33.55,15.4V94.42H30c-.32,0-.47-.86-.45-2.59a22.81,22.81,0,0,1,.34-4.17,24.07,24.07,0,0,1,1-3.59,35.91,35.91,0,0,1,2.65-5.66,23.66,23.66,0,0,1,4-4.93L44.88,66a16.93,16.93,0,0,0,3.72-6.13,16.34,16.34,0,0,0,1.14-6.7,18.61,18.61,0,0,1-4.28,2.58q-11.2,4-16.22,11.62c-.24.32-1,1.75-2.37,4.28a12.39,12.39,0,0,1-1.8,2.75,4.29,4.29,0,0,1-2.9,1.11,4.74,4.74,0,0,1-4.6-2.85,12,12,0,0,1-4,.52,12.83,12.83,0,0,1-4.28-2.37,13.28,13.28,0,0,1-3.51-5.39A19.71,19.71,0,0,1,5,59.56q0-4.44,5.49-11.73,6.45-8.38,6.87-12.78a27.72,27.72,0,0,1,.37-4.28,8.74,8.74,0,0,1,1.32-3.16c.46-.71.76-1.19.92-1.46A12.45,12.45,0,0,1,20.85,25a12.1,12.1,0,0,1,.79-1c.21-.23.47-.54.79-.93s.88-1,1.48-1.58a38.76,38.76,0,0,1-2.27-15.9A42,42,0,0,1,39.28,17.36a17.81,17.81,0,0,1,6.86-9.67A21,21,0,0,1,52.85,15.51Z" stroke-miterlimit="10" stroke-width="2"/>
    <path d="M17.2,59.67a1.53,1.53,0,0,0,.32-2.54,2,2,0,0,0-2.8-.21,6.93,6.93,0,0,0-3.43,5.54c0,1.17.72,1.71,2.06,1.64a1.73,1.73,0,0,0,1.84-1.95A3.64,3.64,0,0,1,17.2,59.67Zm4.54,9.4c.14-.32.37-.79.69-1.43a12.56,12.56,0,0,0,.9-2.64,1.39,1.39,0,0,0-1.53-1.48c-.71,0-1.54,1-2.49,3a2.1,2.1,0,0,1-.63.74c-.95,1-.81,1.82.42,2.48A1.68,1.68,0,0,0,21.74,69.07Zm8.77-35.71,1.16-.58a1.63,1.63,0,0,0,1-2.32,1.77,1.77,0,0,0-2.43-1.06,13.93,13.93,0,0,0-8.61,8.35,1.85,1.85,0,0,0,1.27,2.37A1.57,1.57,0,0,0,25.12,39a7.18,7.18,0,0,1,.64-1.16,3.06,3.06,0,0,0,1.53.63Q30.52,39,31,35.58A3.21,3.21,0,0,0,30.51,33.36Zm8.61-9.66a13.4,13.4,0,0,1,.11-4.12,13.32,13.32,0,0,0-6,3,1.6,1.6,0,0,0-.8,2.48,1.5,1.5,0,0,0,2.49.53l2-1.09A8,8,0,0,1,39.12,23.7ZM52.91,49.47a17.25,17.25,0,0,0,3.64-10.83,1.79,1.79,0,0,0-2-1.74c-1.62,0-2.25.6-1.9,1.8a11.56,11.56,0,0,1-.58,4.8A13.48,13.48,0,0,1,49.37,48c-.53,1.06-.22,1.83,1,2.33A1.77,1.77,0,0,0,52.91,49.47Zm35.7,41.2a28.33,28.33,0,0,1,.1-2.88q.17-2.88.16-6.21.06-6.6,0-13.65A56.59,56.59,0,0,0,87,53.86a74.52,74.52,0,0,0-4-11.55,46.86,46.86,0,0,0-4.7-8.26A32.36,32.36,0,0,0,68,24.38a39,39,0,0,0-13.68-5.17,10.78,10.78,0,0,1,.13,2.48,16.3,16.3,0,0,0,0,2.43,56.17,56.17,0,0,1,9.66,4.33,20.15,20.15,0,0,1,6.66,5.6,46.86,46.86,0,0,1,4.7,8.26,75.59,75.59,0,0,1,4,11.55,58.45,58.45,0,0,1,1.85,14.07q0,7,0,13.65,0,3.33-.16,6.21a10.43,10.43,0,0,0,0,2.88Z" stroke-miterlimit="10" stroke-width="2"/>
  </g>
</svg>
