<svg xmlns="http://www.w3.org/2000/svg" width="105" height="105" viewBox="0 0 105 105">
  <g><path d="M90.07,34.85q-5.38-6-14.62-5.58A31.28,31.28,0,0,0,67.35,31Q63.43,32.4,61,33.45a10.1,10.1,0,0,0-1.41.78,15.13,15.13,0,0,0,.21-2.2,9.9,9.9,0,0,0-8-9.65l0-7.11,4.44,0a1.52,1.52,0,0,0,1.72-1.73v-.05a1.52,1.52,0,0,0-1.72-1.72H51.84V7.28A1.62,1.62,0,0,0,50,5.45a1.64,1.64,0,0,0-1.88,1.83v4.44H43.8c-1.19,0-1.78.57-1.78,1.72v.05a1.55,1.55,0,0,0,1.78,1.73h4.33v7.19A9.63,9.63,0,0,0,43,25.14a9.44,9.44,0,0,0-2.9,7,9.63,9.63,0,0,0,.26,2.19,12.05,12.05,0,0,0-1.46-.83c-1-.42-2.1-.83-3.16-1.23s-2.1-.81-3.11-1.23a34.8,34.8,0,0,0-8.09-1.67Q15.33,29,9.9,34.91t-4.85,12A19.52,19.52,0,0,0,8.6,57.47a19.16,19.16,0,0,0,2.32,2.61c.85.8,2.05,1.85,3.58,3.13a13.16,13.16,0,0,0,2.84,2.07,4.52,4.52,0,0,1,1.49,1c.07.14.12.21.16.21l1.72,9.77L17.27,89q2.34,2.4,11.54,4a125.19,125.19,0,0,0,21.31,1.6,128.91,128.91,0,0,0,21-1.52q9.09-1.52,11.7-3.86l-3.45-12.9L81,66.45a.14.14,0,0,1,.06-.1l.1-.16a3.9,3.9,0,0,1,1.41-1,15.43,15.43,0,0,0,2.92-2.06c1.47-1.25,2.63-2.29,3.5-3.11a19.4,19.4,0,0,0,2.35-2.63A19.9,19.9,0,0,0,95,46.81Q95.34,40.81,90.07,34.85Z"
style="fill-rule:nonzero;"
/>
<path d="M48.13,62.32c0-1.39,0-3.31-.1-5.77a25.85,25.85,0,0,0-.79-6.13,26.2,26.2,0,0,0-6.47-11.28,21.41,21.41,0,0,0-6.9-4.08A27.68,27.68,0,0,0,23.8,33q-8.27,0-12.23,5.91a13.15,13.15,0,0,0-2.24,7.83,13.51,13.51,0,0,0,2.5,8.41,23.78,23.78,0,0,0,5,4.65c2.47,1.84,4.56,3.55,6.27,5.11q4.53-1,10.26-1.72A134.43,134.43,0,0,1,48.13,62.32Zm-4-4q-6.52.11-11.93.68a39.72,39.72,0,0,0-8.38,1.62,42.83,42.83,0,0,0-3.63-3.89q-2.07-2-3.63-3.68A8.23,8.23,0,0,1,14,47.18q0-3.91,1.3-5.74a8.29,8.29,0,0,1,4.34-3.11,17.78,17.78,0,0,1,5.9-1A16.31,16.31,0,0,1,32.72,39a23.08,23.08,0,0,1,4.5,2.82,28.25,28.25,0,0,1,5.53,7.83,16.57,16.57,0,0,1,1,4.37C44,55.86,44.13,57.29,44.16,58.3ZM77.17,87,75.6,80.87Q65.42,78.51,50,78.51q-15.25,0-25.48,2.36l-1.68,6.21q9.93-3,27.21-3a131.65,131.65,0,0,1,15.41.84A76.23,76.23,0,0,1,77.17,87ZM75.81,71.41q-9.61-2.66-25.59-2.66t-25.9,2.71l.78,5.28Q35,74.18,50.22,74.18T75,76.69ZM50,49.22a13.22,13.22,0,0,1,.63-2,19.07,19.07,0,0,1,1.2-3.45,17.32,17.32,0,0,1,.91-2.06c.4-.78.83-1.68,1.28-2.69.28-.59.58-1.31.89-2.17s.63-1.69.94-2.53a6.15,6.15,0,0,0-1.41-6.61A6.1,6.1,0,0,0,50,25.87q-6.21,0-6.21,6.22a5.91,5.91,0,0,0,.41,2.24A47.71,47.71,0,0,0,46,39c.45,1,.87,1.91,1.25,2.69s.72,1.47,1,2.06a33.13,33.13,0,0,1,1.14,3.45C49.45,47.44,49.66,48.1,50,49.22Zm0-8.93a4.79,4.79,0,0,0-.26-.89,14.68,14.68,0,0,0-.52-1.52L48.81,37c-.17-.36-.35-.76-.52-1.18q-.16-.36-.39-1c-.16-.4-.29-.78-.4-1.12a3.32,3.32,0,0,1-.15-1c0-1.84.88-2.76,2.66-2.76s2.77.9,2.77,2.71a1.8,1.8,0,0,1-.21,1c-.49,1.33-.75,2-.78,2.14q-.8,1.58-1,2a5.55,5.55,0,0,0-.47,1.52,2.66,2.66,0,0,0-.22.54C50.08,40.05,50,40.18,50,40.29Zm1.88,22.09a138.17,138.17,0,0,1,14.73.89Q72.37,64,77,65a57.86,57.86,0,0,1,6.37-5.38,25.26,25.26,0,0,0,4.91-4.39,13.85,13.85,0,0,0,2.51-8.46A13,13,0,0,0,88.5,39q-4-5.9-12.27-5.9a27,27,0,0,0-10,2.09,19.89,19.89,0,0,0-6.89,4.07,25.08,25.08,0,0,0-6.48,11.28A21.54,21.54,0,0,0,52,56.63C51.92,59.1,51.89,61,51.89,62.38ZM55.7,58.3A39.83,39.83,0,0,1,56,54a15.26,15.26,0,0,1,1.07-4.37,26.9,26.9,0,0,1,5.54-7.83A20.85,20.85,0,0,1,67.14,39a16.25,16.25,0,0,1,7.26-1.67,17.41,17.41,0,0,1,5.82,1,8.55,8.55,0,0,1,4.36,3.11q1.31,1.77,1.31,5.74A8.39,8.39,0,0,1,83.33,53q-1.67,1.72-3.6,3.47A29.16,29.16,0,0,0,76,60.6,40.82,40.82,0,0,0,67.58,59Q62.18,58.41,55.7,58.3Z"
style="fill:white;fill-rule:nonzero;"
/>  </g>
</svg>
