<svg xmlns="http://www.w3.org/2000/svg" width="105" height="105" viewBox="0 0 105 105">
  <g>
    <path d="M50,84.39a10.17,10.17,0,0,1-1.82,4.24,19.61,19.61,0,0,1-2.85,2.47,19.81,19.81,0,0,1-4.56,2.28,11.9,11.9,0,0,1-5.85.45L19.85,91.74a6.41,6.41,0,0,0-1.64,0,9.58,9.58,0,0,1-1.37.11,10.67,10.67,0,0,0-2.87.51,6.25,6.25,0,0,0-2.71,1.47L6.06,85.3a7.64,7.64,0,0,1,1.71-1.5c.5-.29,1.1-.59,1.78-.91a19.66,19.66,0,0,1,6.65-1.77,26.55,26.55,0,0,1,2.95-.06,21.85,21.85,0,0,0,3-.1q2.89.48,5.82.88l5.88.83A9.88,9.88,0,0,0,38.2,82c.39-.22,1-.61,1.87-1.18a11.23,11.23,0,0,0,2.58-2.52,42.77,42.77,0,0,1-5.8-1.1,53.12,53.12,0,0,1-5.2-1.64l5.58-13.84a39.23,39.23,0,0,1-5.85-3.89,11.39,11.39,0,0,1-2.63-3.41A14.82,14.82,0,0,1,27,49.67a20.23,20.23,0,0,1-.35-4.13,21.22,21.22,0,0,1,1.52-7.11,15.86,15.86,0,0,1,5.56-6.95q3.38-2.57,6.6-5.31a59.06,59.06,0,0,0,6.38-6.38,6.82,6.82,0,0,1-4-6.49,7.08,7.08,0,0,1,2.12-5.15,7.28,7.28,0,0,1,10.33,0A7,7,0,0,1,57.3,13.3a6.9,6.9,0,0,1-4,6.49,56.89,56.89,0,0,0,6.3,6.38q3.19,2.74,6.68,5.31a15.69,15.69,0,0,1,5.47,7,22.68,22.68,0,0,1,1.56,7.11A26,26,0,0,1,73,49.67a15.26,15.26,0,0,1-1.71,4.78,13.37,13.37,0,0,1-2.71,3.41,38.5,38.5,0,0,1-5.77,3.89l5.58,13.84Q66,76.44,63,77.23a43.71,43.71,0,0,1-5.69,1.1,10.34,10.34,0,0,0,2.52,2.52A22.21,22.21,0,0,0,61.8,82a9.85,9.85,0,0,0,4.35.64L72,81.84q2.93-.41,5.88-.88a20.26,20.26,0,0,0,2.92.1,28.15,28.15,0,0,1,3,.06,20.69,20.69,0,0,1,6.66,1.77c.64.32,1.22.62,1.74.91a7.28,7.28,0,0,1,1.74,1.5l-5.26,8.53A6.21,6.21,0,0,0,86,92.36a10.69,10.69,0,0,0-2.82-.51,9.81,9.81,0,0,1-1.42-.11,6.41,6.41,0,0,0-1.64,0l-15,2.09a12.7,12.7,0,0,1-6-.43A13.32,13.32,0,0,1,54.56,91c-1.18-1-2.12-1.8-2.82-2.5A8.76,8.76,0,0,1,50,84.39Z" />
    <path d="M64.27,74.19,62,68.72a57.57,57.57,0,0,0-12-1.18,56.43,56.43,0,0,0-11.91,1.18l-2.25,5.42A58.1,58.1,0,0,1,50,72.48,58.82,58.82,0,0,1,64.27,74.19Zm-4.5-11-1.56-3.75V57.94a57.07,57.07,0,0,0-16.37,0l-.05,1.45-1.45,3.75a56.21,56.21,0,0,1,9.66-.8A57.6,57.6,0,0,1,59.77,63.14ZM48,44.47V49a2,2,0,1,0,4,0V44.42h4.83a1.68,1.68,0,0,0,1.88-1.93,1.69,1.69,0,0,0-1.88-1.94H52V35.72a2,2,0,0,0-4,0v4.83H43.29c-1.25,0-1.87.65-1.87,1.94a1.68,1.68,0,0,0,1.87,1.93Zm-1.19,39a11.85,11.85,0,0,0,1.24-5.09H46.35A17.44,17.44,0,0,1,42,83.42Zm11.06,0a18.28,18.28,0,0,1-4.29-5.09H51.88a11.26,11.26,0,0,0,1.23,5.09Z" />
   </g>
</svg>
