<svg xmlns="http://www.w3.org/2000/svg" width="105" height="105" viewBox="0 0 105 105">
  <g>
    <polygon points="56.773 91.079 56.773 73.987 76.001 73.987 78.138 82.533 86.684 82.533 84.547 73.987 82.411 65.441 22.589 65.441 20.453 73.987 18.316 82.533 26.862 82.533 28.999 73.987 48.227 73.987 48.227 91.079 16.18 91.079 14.043 99.625 90.957 99.625 88.82 91.079 56.773 91.079" stroke="#000" stroke-miterlimit="10" stroke-width="2"/>
    <path d="M82.411,56.9l2.136-8.546,3.4-13.588,3.013-12.049a25.593,25.593,0,0,1-9.925,5.513,25.641,25.641,0,0,1-7.167,1.015,25.516,25.516,0,0,1-15.382-5.125A25.736,25.736,0,0,1,52.5,17.778a25.736,25.736,0,0,1-5.983,6.337A25.516,25.516,0,0,1,31.135,29.24a25.641,25.641,0,0,1-7.167-1.015,25.593,25.593,0,0,1-9.925-5.513L22.589,56.9ZM31.135,37.786a34.036,34.036,0,0,0,21.365-7.5,34.036,34.036,0,0,0,21.365,7.5,34.356,34.356,0,0,0,4.863-.343L76,48.349H29l-2.727-10.9A34.5,34.5,0,0,0,31.135,37.786Z" stroke="#000" stroke-miterlimit="10" stroke-width="2"/>
  </g>
</svg>
