<svg xmlns="http://www.w3.org/2000/svg" width="105" height="105" viewBox="0 0 105 105">
  <g>
    <polygon points="56.944 91.076 56.944 73.985 70.924 73.985 73.061 82.534 81.61 82.534 79.473 73.985 77.336 65.443 28.004 65.443 25.867 73.985 23.73 82.534 32.279 82.534 34.416 73.985 48.396 73.985 48.396 91.076 21.599 91.076 19.462 99.625 85.878 99.625 83.74 91.076 56.944 91.076" stroke="#000" stroke-miterlimit="10" stroke-width="2"/>
    <polygon points="52.663 49.483 26.083 49.483 26.083 40.412 68.774 21.068 78.159 40.059 71.728 57.208 80.107 57.208 86.76 39.464 72.303 11.128 18.24 35.17 18.24 57.326 52.663 57.326 52.663 49.483" stroke="#000" stroke-miterlimit="10" stroke-width="2"/>
  </g>
</svg>
