<svg xmlns="http://www.w3.org/2000/svg" width="105" height="105" viewBox="0 0 105 105">
  <g>
    <polygon points="83.571 91.076 56.774 91.076 56.774 73.985 70.754 73.985 72.891 82.534 81.44 82.534 79.303 73.985 77.166 65.443 52.5 65.443 27.834 65.443 25.697 73.985 23.56 82.534 32.109 82.534 34.246 73.985 48.226 73.985 48.226 91.076 21.429 91.076 19.292 99.625 52.5 99.625 85.708 99.625 83.571 91.076" stroke-miterlimit="10" stroke-width="2"/>
    <polygon points="82.77 39.81 82.77 21.065 74.222 21.065 74.222 31.268 56.706 31.268 56.706 21.065 52.497 21.065 48.288 21.065 48.288 31.268 30.773 31.268 30.773 21.065 22.224 21.065 22.224 39.81 52.497 39.81 82.77 39.81" stroke-miterlimit="10" stroke-width="2"/>
    <polygon points="27.382 56.892 77.616 56.892 80.191 48.355 24.807 48.355 27.382 56.892"   stroke-miterlimit="10" stroke-width="2"/>
  </g>
</svg>
