<svg xmlns="http://www.w3.org/2000/svg" width="105" height="105" viewBox="0 0 105 105">
  <g>
    <path d="M45.084,51.928a17.008,17.008,0,0,1-2.193-8.963,9.609,9.609,0,0,1,19.218,0,17.008,17.008,0,0,1-2.193,8.963H68.9a22.833,22.833,0,0,0,1.749-8.963,18.153,18.153,0,0,0-36.306,0A22.833,22.833,0,0,0,36.1,51.928Z" stroke="#000" stroke-miterlimit="10" stroke-width="2"/>
    <polygon points="76.586 91.093 56.772 91.093 56.772 69.023 62.591 69.023 66.292 82.536 74.836 82.536 68.992 60.466 52.5 60.466 36.008 60.466 30.164 82.536 38.708 82.536 42.409 69.023 48.228 69.023 48.228 91.093 28.414 91.093 26.285 99.625 52.5 99.625 78.715 99.625 76.586 91.093" stroke="#000" stroke-miterlimit="10" stroke-width="2"/>
  </g>
</svg>
