<svg xmlns="http://www.w3.org/2000/svg" width="105" height="105" viewBox="0 0 105 105">
  <g>
    <polygon points="88.82 91.079 56.773 91.079 56.773 73.986 76.002 73.986 78.138 82.532 86.684 82.532 84.547 73.986 82.411 65.441 22.59 65.441 20.453 73.986 18.316 82.532 26.863 82.532 28.999 73.986 48.227 73.986 48.227 91.079 16.18 91.079 14.043 99.625 90.957 99.625 88.82 91.079" stroke-miterlimit="10" stroke-width="2"/>
    <path d="M22.59,56.9H82.411L86.684,39.8c1.766-7.068-.619-11.8-5.026-14.078-6.251-3.229-16.572-1.507-24.885,5.532l-.9-9.687h9.333V14.709H55.876V5.375H49.014v9.334H39.681V21.57h9.443l-.9,9.687c-14.172-12-34.184-8.546-29.911,8.546ZM56.773,39.8c7.584-8.546,24.728-14.157,21.365,0L76,48.349H56.773Zm-8.546,0v8.546H29L26.863,39.8C23.5,25.646,40.643,31.257,48.227,39.8Z" stroke-miterlimit="10" stroke-width="2"/>
  </g>
</svg>
