<svg xmlns="http://www.w3.org/2000/svg" width="105" height="105" viewBox="0 0 105 105">
  <g>
    <path d="M35.37,56.9a22.207,22.207,0,0,1-1.4-7.9c0-10.719,11.47-24.228,18.346-30.973,2.091,2.288,4.34,4.909,6.529,7.654-7.065,4.352-10.267,11.594-10.267,22.8h7.842c0-9.83,2.68-14.052,7.163-16.509C67.826,38,71.029,43.876,71.029,47.6a24.785,24.785,0,0,1-1.837,9.3H77.5a32.22,32.22,0,0,0,1.372-9.3c0-13.15-21.142-35.345-23.554-37.835L52.722,7.093l-2.8,2.451c-.973.849-23.789,21.025-23.789,39.462a30.512,30.512,0,0,0,1.019,7.9Z"  stroke-miterlimit="10" stroke-width="2"/>
    <polygon points="83.571 91.076 56.774 91.076 56.774 73.985 70.754 73.985 72.891 82.534 81.44 82.534 79.303 73.985 77.166 65.443 27.834 65.443 25.697 73.985 23.56 82.534 32.109 82.534 34.246 73.985 48.226 73.985 48.226 91.076 21.429 91.076 19.292 99.625 85.708 99.625 83.571 91.076" stroke-miterlimit="10" stroke-width="2"/>
  </g>
</svg>
