<svg width="45" height="37" viewBox="0 0 45 37" fill="none" xmlns="http://www.w3.org/2000/svg">
<path d="M31.5 29.8203C35.8594 29.8203 39.375 26.2344 39.375 21.9453C39.375 17.5859 35.8594 14.0703 31.5 14.0703C27.1406 14.0703 23.625 17.5859 23.625 21.9453C23.625 26.2344 27.1406 29.8203 31.5 29.8203ZM30.5859 21.1719L34.1719 17.5859C34.3125 17.5156 34.5938 17.375 34.7344 17.375C34.9453 17.375 35.2266 17.5156 35.3672 17.5859L35.7891 18.0078C35.9297 18.1484 36 18.4297 36 18.6406C36 18.7812 35.9297 19.0625 35.7891 19.2031L32.2031 22.7891C32.0625 22.9297 31.7812 23.0703 31.5703 23.0703C31.3594 23.0703 31.1484 22.9297 31.0078 22.7891L30.5859 22.3672C30.4453 22.2266 30.375 22.0156 30.375 21.8047C30.375 21.5938 30.4453 21.3125 30.5859 21.1719ZM42.1875 7.25H38.25V6.125C38.25 5.5625 37.7578 5 37.125 5H28.125C27.4922 5 27 5.5625 27 6.125V7.25H14.0625V3.875H16.875C17.4375 3.875 18 3.38281 18 2.75V1.625C18 1.0625 17.4375 0.5 16.875 0.5H7.875C7.24219 0.5 6.75 1.0625 6.75 1.625V2.75C6.75 3.38281 7.24219 3.875 7.875 3.875H10.6875V7.25H2.8125C1.19531 7.25 0 8.51562 0 10.0625V33.6875C0 35.3047 1.19531 36.5 2.8125 36.5H42.1875C43.7344 36.5 45 35.3047 45 33.6875V10.0625C45 8.51562 43.7344 7.25 42.1875 7.25ZM41.625 33.125H3.375V10.625H41.625V33.125ZM13.5 29.75C17.7891 29.75 21.375 26.2344 21.375 21.875C21.375 17.5859 17.7891 14 13.5 14C9.14062 14 5.625 17.5859 5.625 21.875C5.625 26.2344 9.14062 29.75 13.5 29.75ZM12.375 17.0938C12.375 16.6719 12.7266 16.25 13.2188 16.25H13.7812C14.2031 16.25 14.625 16.6719 14.625 17.0938V22.1562C14.625 22.6484 14.2031 23 13.7812 23H13.2188C12.7266 23 12.375 22.6484 12.375 22.1562V17.0938Z" fill="white"/>
</svg>
