<?xml version="1.0" encoding="UTF-8" standalone="no"?>
<svg
   xmlns:dc="http://purl.org/dc/elements/1.1/"
   xmlns:cc="http://creativecommons.org/ns#"
   xmlns:rdf="http://www.w3.org/1999/02/22-rdf-syntax-ns#"
   xmlns:svg="http://www.w3.org/2000/svg"
   xmlns="http://www.w3.org/2000/svg"
   xmlns:sodipodi="http://sodipodi.sourceforge.net/DTD/sodipodi-0.dtd"
   xmlns:inkscape="http://www.inkscape.org/namespaces/inkscape"
   width="48"
   height="47"
   viewBox="0 0 48 47"
   fill="none"
   version="1.1"
   id="svg12"
   sodipodi:docname="icon_redo.svg"
   inkscape:version="1.0.2 (e86c8708, 2021-01-15)">
  <metadata
     id="metadata18">
    <rdf:RDF>
      <cc:Work
         rdf:about="">
        <dc:format>image/svg+xml</dc:format>
        <dc:type
           rdf:resource="http://purl.org/dc/dcmitype/StillImage" />
        <dc:title></dc:title>
      </cc:Work>
    </rdf:RDF>
  </metadata>
  <defs
     id="defs16" />
  <sodipodi:namedview
     pagecolor="#ffffff"
     bordercolor="#666666"
     borderopacity="1"
     objecttolerance="10"
     gridtolerance="10"
     guidetolerance="10"
     inkscape:pageopacity="0"
     inkscape:pageshadow="2"
     inkscape:window-width="1920"
     inkscape:window-height="1027"
     id="namedview14"
     showgrid="true"
     inkscape:zoom="15.583333"
     inkscape:cx="24"
     inkscape:cy="23.5"
     inkscape:window-x="0"
     inkscape:window-y="25"
     inkscape:window-maximized="1"
     inkscape:current-layer="svg12"
     inkscape:snap-grids="true">
    <inkscape:grid
       type="xygrid"
       id="grid48" />
  </sodipodi:namedview>
  <path
     d="m 23,15 c 5.202484,0 9.914181,1.988529 13.546066,5.222445 l 3.710405,-3.796283 c 1.236812,-1.265427 3.35706,-0.381591 3.35706,1.40602 v 11.228217 c 0,1.104693 -0.883437,2.008569 -1.963189,2.008569 H 30.676107 c -1.747286,0 -2.630723,-2.169304 -1.393912,-3.434732 l 3.749711,-3.836467 C 30.303045,21.467833 26.82826,20.02163 22.980413,20.02163 c -6.203747,0 -11.56323,3.695772 -14.115404,9.038769 C 8.3349469,30.185132 7.0785481,30.747602 5.9201856,30.345867 4.5263746,29.883908 3.8196251,28.25693 4.4478244,26.891094 7.8244718,19.860895 14.852793,15 23,15 Z"
     fill="#ffffff"
     id="path10"
     style="stroke-width:1.02126" />
</svg>
