<svg width="48" height="47" viewBox="0 0 48 47" fill="none" xmlns="http://www.w3.org/2000/svg">
<path d="M25.1364 15.5555C19.9836 15.5555 15.3169 17.4805 11.7197 20.6111L8.04473 16.9361C6.81973 15.7111 4.71973 16.5667 4.71973 18.2972V29.1667C4.71973 30.2361 5.59473 31.1111 6.66417 31.1111H17.5336C19.2642 31.1111 20.1392 29.0111 18.9142 27.7861L15.2003 24.0722C17.9031 21.8167 21.3447 20.4167 25.1558 20.4167C31.3003 20.4167 36.6086 23.9944 39.1364 29.1667C39.6614 30.2555 40.9058 30.8 42.0531 30.4111C43.4336 29.9639 44.1336 28.3889 43.5114 27.0667C40.167 20.2611 33.2058 15.5555 25.1364 15.5555Z" fill="white"/>
</svg>
