<svg width="48" height="48" viewBox="0 0 48 48" fill="none" xmlns="http://www.w3.org/2000/svg">
<path d="M14.3111 33.9222V14.4778H17.7917C18.6667 14.4778 19.0944 13.4278 18.4722 12.825L13.0472 7.39999C12.6583 7.0111 12.0555 7.0111 11.6667 7.39999L6.24165 12.825C5.63887 13.4278 6.06665 14.4778 6.94165 14.4778H10.4222V35.8667C10.4222 36.9361 11.2972 37.8111 12.3667 37.8111H20.1444C21.2139 37.8111 22.0889 36.9361 22.0889 35.8667C22.0889 34.7972 21.2139 33.9222 20.1444 33.9222H14.3111ZM33.7555 14.4778V33.9222H30.275C29.4 33.9222 28.9722 34.9722 29.5944 35.575L35.0194 41C35.4083 41.3889 36.0111 41.3889 36.4 41L41.825 35.575C42.4278 34.9722 42 33.9222 41.125 33.9222H37.6444V12.5333C37.6444 11.4639 36.7694 10.5889 35.7 10.5889H27.9222C26.8528 10.5889 25.9778 11.4639 25.9778 12.5333C25.9778 13.6028 26.8528 14.4778 27.9222 14.4778H33.7555Z" fill="white"/>
</svg>
