<svg width="40" height="41" viewBox="0 0 40 41" fill="none" xmlns="http://www.w3.org/2000/svg">
<g filter="url(#filter0_d_435_1409)">
<path d="M35.1875 11.3672L35.6797 8.55469C35.8203 7.99219 35.3984 7.5 34.8359 7.5H29.6328L30.6172 1.80469C30.7578 1.24219 30.3359 0.75 29.7734 0.75H26.9609C26.5391 0.75 26.1875 1.10156 26.1172 1.45312L25.0625 7.5H18.1016L19.1562 1.80469C19.2266 1.24219 18.8047 0.75 18.3125 0.75H15.4297C15.0781 0.75 14.6562 1.10156 14.5859 1.45312L13.5312 7.5H7.97656C7.55469 7.5 7.20312 7.85156 7.13281 8.20312L6.64062 11.0156C6.57031 11.5781 6.92188 12 7.48438 12H12.7578L11.1406 21H5.58594C5.16406 21 4.8125 21.3516 4.74219 21.7031L4.25 24.5156C4.10938 25.0781 4.53125 25.5 5.09375 25.5H10.2969L9.3125 31.2656C9.17188 31.8281 9.59375 32.25 10.1562 32.25H12.9688C13.3906 32.25 13.7422 31.9688 13.8125 31.6172L14.8672 25.5H21.8281L20.7734 31.2656C20.7031 31.8281 21.125 32.25 21.6172 32.25H24.5C24.8516 32.25 25.2734 31.9688 25.3438 31.6172L26.3984 25.5H31.9531C32.375 25.5 32.7266 25.2188 32.7969 24.8672L33.2891 22.0547C33.3594 21.4922 33.0078 21 32.4453 21H27.1719L28.7891 12H34.3438C34.7656 12 35.1172 11.7188 35.1875 11.3672ZM22.6016 21H15.7109L17.3281 12H24.2188L22.6016 21Z" fill="white"/>
</g>
<defs>
<filter id="filter0_d_435_1409" x="0.109375" y="0.75" width="39.7109" height="39.5" filterUnits="userSpaceOnUse" color-interpolation-filters="sRGB">
<feFlood flood-opacity="0" result="BackgroundImageFix"/>
<feColorMatrix in="SourceAlpha" type="matrix" values="0 0 0 0 0 0 0 0 0 0 0 0 0 0 0 0 0 0 127 0" result="hardAlpha"/>
<feOffset dy="4"/>
<feGaussianBlur stdDeviation="2"/>
<feComposite in2="hardAlpha" operator="out"/>
<feColorMatrix type="matrix" values="0 0 0 0 0 0 0 0 0 0 0 0 0 0 0 0 0 0 0.25 0"/>
<feBlend mode="normal" in2="BackgroundImageFix" result="effect1_dropShadow_435_1409"/>
<feBlend mode="normal" in="SourceGraphic" in2="effect1_dropShadow_435_1409" result="shape"/>
</filter>
</defs>
</svg>
