<svg width="30" height="24" viewBox="0 0 30 24" fill="none" xmlns="http://www.w3.org/2000/svg">
  <path d="M23.8572 8.95535C24.3037 9.04464 24.7947 9.04464 25.2412 8.95535L25.6429 9.625C25.7769 9.84821 26.0447 9.9375 26.3126 9.84821C26.8037 9.66964 27.2947 9.35714 27.7412 9.04464C27.9197 8.86607 28.009 8.55357 27.8751 8.33035L27.4733 7.70535C27.7858 7.34821 28.0537 6.90178 28.1876 6.45535H28.9465C29.2144 6.45535 29.4376 6.27678 29.4822 6.00892C29.5715 5.42857 29.5715 4.89285 29.4822 4.35714C29.4376 4.08928 29.2144 3.86607 28.9465 3.86607H28.1876C28.0537 3.41964 27.7858 3.01785 27.4733 2.66071L27.8751 2.03571C28.009 1.76785 27.9197 1.5 27.7412 1.32142C27.2947 0.964281 26.8037 0.696424 26.3126 0.47321C26.0447 0.383924 25.7769 0.47321 25.6429 0.741067L25.2412 1.36607C24.7947 1.27678 24.3037 1.27678 23.8572 1.36607L23.4554 0.741067C23.3215 0.47321 23.0537 0.383924 22.7858 0.47321C22.2947 0.696424 21.8037 0.964281 21.3572 1.32142C21.1787 1.5 21.0894 1.76785 21.2233 2.03571L21.6251 2.66071C21.3126 3.01785 21.0447 3.41964 20.9108 3.86607H20.1519C19.884 3.86607 19.6608 4.08928 19.6162 4.35714C19.5269 4.89285 19.5269 5.47321 19.6162 6.00892C19.6608 6.27678 19.884 6.45535 20.1519 6.45535H20.9108C21.0447 6.90178 21.3126 7.34821 21.6251 7.70535L21.2233 8.33035C21.0894 8.55357 21.1787 8.86607 21.3572 9.04464C21.8037 9.35714 22.2947 9.66964 22.7858 9.84821C23.0537 9.9375 23.3215 9.84821 23.4554 9.625L23.8572 8.95535ZM23.3662 6.36607C22.0715 4.625 23.9912 2.66071 25.7322 4C27.0715 5.69642 25.1072 7.66071 23.3662 6.36607ZM18.2322 13.2411C18.4108 12.3036 18.4108 11.3214 18.2322 10.3839L19.7501 9.625C20.1965 9.35714 20.3751 8.82142 20.1965 8.33035C19.7947 7.25892 19.0358 6.27678 18.2769 5.38392C17.9644 4.98214 17.384 4.89285 16.9376 5.16071L15.6429 5.91964C14.9287 5.29464 14.0804 4.80357 13.1876 4.49107V3.01785C13.1876 2.48214 12.8304 2.03571 12.2947 1.94642C11.1787 1.76785 10.0179 1.76785 8.90187 1.94642C8.4108 2.03571 8.05366 2.48214 8.05366 3.01785V4.49107C7.11616 4.80357 6.31259 5.29464 5.5983 5.91964L4.30366 5.16071C3.81259 4.89285 3.27687 5.02678 2.91973 5.38392C2.20544 6.27678 1.44652 7.25892 1.04473 8.33035C0.866158 8.82142 1.04473 9.35714 1.5358 9.625L3.00902 10.3839C2.83044 11.3214 2.83044 12.3036 3.00902 13.2411L1.5358 13.9554C1.04473 14.2232 0.866158 14.8036 1.04473 15.25C1.44652 16.3661 2.20544 17.3482 2.91973 18.1964C3.27687 18.5982 3.85723 18.6875 4.30366 18.4196L5.5983 17.7054C6.31259 18.2857 7.11616 18.7768 8.05366 19.0893V20.6071C8.05366 21.1429 8.4108 21.5893 8.94652 21.6786C10.0626 21.8571 11.2233 21.8571 12.2947 21.6786C12.8304 21.5893 13.1876 21.1429 13.1876 20.6071V19.0893C14.0804 18.7768 14.9287 18.2857 15.6429 17.7054L16.9376 18.4643C17.384 18.6875 17.9644 18.5982 18.2769 18.1964C19.0358 17.3482 19.7947 16.3661 20.1965 15.25C20.3751 14.7589 20.1965 14.2232 19.7501 13.9554L18.2322 13.2411ZM12.9644 14.1786C9.52687 16.8125 5.5983 12.8839 8.27687 9.44642C11.7144 6.8125 15.5983 10.7411 12.9644 14.1786ZM23.8572 22.3036C24.3037 22.3929 24.7947 22.3929 25.2412 22.3036L25.6429 22.9732C25.7769 23.1964 26.0447 23.2857 26.3126 23.1964C26.8037 23.0179 27.2947 22.7054 27.7412 22.3482C27.9197 22.2143 28.009 21.9018 27.8751 21.6786L27.4733 21.0089C27.7858 20.6518 28.0537 20.25 28.1876 19.8036H28.9465C29.2144 19.8036 29.4376 19.625 29.4822 19.3571C29.5715 18.7768 29.5715 18.2411 29.4822 17.7054C29.4376 17.4375 29.2144 17.2143 28.9465 17.2143H28.1876C28.0537 16.7679 27.7858 16.3661 27.4733 16.0089L27.8751 15.3839C28.009 15.1161 27.9197 14.8482 27.7412 14.6696C27.2947 14.3125 26.8037 14.0446 26.3126 13.8214C26.0447 13.7321 25.7769 13.8214 25.6429 14.0893L25.2412 14.7143C24.7947 14.625 24.3037 14.625 23.8572 14.7143L23.4554 14.0893C23.3215 13.8214 23.0537 13.7321 22.7858 13.8214C22.2947 14.0446 21.8037 14.3125 21.3572 14.6696C21.1787 14.8482 21.0894 15.1161 21.2233 15.3839L21.6251 16.0089C21.3126 16.3661 21.0447 16.7679 20.9108 17.2143H20.1519C19.884 17.2143 19.6608 17.4375 19.6162 17.7054C19.5269 18.2411 19.5269 18.8214 19.6162 19.3571C19.6608 19.625 19.884 19.8036 20.1519 19.8036H20.9108C21.0447 20.25 21.3126 20.6518 21.6251 21.0089L21.2233 21.6786C21.0894 21.9018 21.1787 22.2143 21.3572 22.3482C21.8037 22.7054 22.2947 23.0179 22.7858 23.1964C23.0537 23.2857 23.3215 23.1964 23.4554 22.9732L23.8572 22.3036ZM23.3662 19.6696C22.0715 17.9732 23.9912 16.0089 25.7322 17.3482C27.0715 19.0446 25.1072 21.0089 23.3662 19.6696Z" />
</svg>
