<svg width="39" height="30" viewBox="0 0 39 30" fill="none" xmlns="http://www.w3.org/2000/svg">
<path d="M8.85569 17.232L6.83969 15.048H12.8877V18.03H0.413688V15.048H7.04969L5.03369 17.232V1.944L6.67169 3.582H0.749688V0.599998H8.85569V17.232ZM6.92369 30L26.9997 0.599998H31.0737L10.9977 30H6.92369ZM24.6057 30V27.648L32.1237 21.096C33.0477 20.256 33.6497 19.598 33.9297 19.122C34.2377 18.618 34.3917 18.142 34.3917 17.694C34.3917 17.05 34.0977 16.518 33.5097 16.098C32.9497 15.65 32.0397 15.426 30.7797 15.426C29.8277 15.426 28.9737 15.58 28.2177 15.888C27.4617 16.196 26.8597 16.658 26.4117 17.274L23.7657 15.384C24.4657 14.432 25.4317 13.676 26.6637 13.116C27.8957 12.556 29.3657 12.276 31.0737 12.276C33.3417 12.276 35.0917 12.766 36.3237 13.746C37.5557 14.726 38.1717 15.958 38.1717 17.442C38.1717 18.282 37.9617 19.094 37.5417 19.878C37.1497 20.662 36.2817 21.642 34.9377 22.818L28.5957 28.362L27.7137 27.018H38.8857V30H24.6057Z" fill="white"/>
</svg>
