<svg width="25" height="23" viewBox="0 0 25 23" fill="none" xmlns="http://www.w3.org/2000/svg">
<path d="M24.5234 12.1328C24.875 11.7812 24.875 11.2891 24.5234 10.9375L14.2578 0.53125C13.9062 0.179688 13.3438 0.179688 13.0625 0.53125L11.6562 1.9375C11.3047 2.21875 11.3047 2.78125 11.6562 3.13281L19.9531 11.5L11.6562 19.9375C11.3047 20.2891 11.3047 20.7812 11.6562 21.1328L13.0625 22.5391C13.3438 22.8906 13.9062 22.8906 14.2578 22.5391L24.5234 12.1328ZM13.2734 10.9375L3.00781 0.53125C2.65625 0.179688 2.09375 0.179688 1.8125 0.53125L0.40625 1.9375C0.0546875 2.21875 0.0546875 2.78125 0.40625 3.13281L8.70312 11.5L0.40625 19.9375C0.0546875 20.2891 0.0546875 20.7812 0.40625 21.1328L1.8125 22.5391C2.09375 22.8906 2.65625 22.8906 3.00781 22.5391L13.2734 12.1328C13.625 11.7812 13.625 11.2891 13.2734 10.9375Z" fill="white"/>
</svg>
