<svg width="74" height="74" viewBox="0 0 74 74" fill="none" xmlns="http://www.w3.org/2000/svg">
<path d="M2 7C2 4.23858 4.23858 2 7 2H67C69.7614 2 72 4.23858 72 7V67C72 69.7614 69.7614 72 67 72H7C4.23858 72 2 69.7614 2 67V7Z" fill="white"/>
<path d="M16.7393 67L22.4093 54.4H24.7133L30.4013 67H27.9533L23.0753 55.642H24.0113L19.1513 67H16.7393ZM19.3493 64.084L19.9793 62.248H26.7833L27.4133 64.084H19.3493Z" fill="#00AEEF"/>
<path d="M32.0037 67V54.4H37.1877C38.3037 54.4 39.2577 54.58 40.0497 54.94C40.8537 55.3 41.4717 55.816 41.9037 56.488C42.3357 57.16 42.5517 57.958 42.5517 58.882C42.5517 59.806 42.3357 60.604 41.9037 61.276C41.4717 61.936 40.8537 62.446 40.0497 62.806C39.2577 63.154 38.3037 63.328 37.1877 63.328H33.2997L34.3437 62.266V67H32.0037ZM40.2477 67L37.0617 62.428H39.5637L42.7677 67H40.2477ZM34.3437 62.518L33.2997 61.402H37.0797C38.1117 61.402 38.8857 61.18 39.4017 60.736C39.9297 60.292 40.1937 59.674 40.1937 58.882C40.1937 58.078 39.9297 57.46 39.4017 57.028C38.8857 56.596 38.1117 56.38 37.0797 56.38H33.2997L34.3437 55.228V62.518Z" fill="#00AEEF"/>
<path d="M45.1697 67V54.4H51.0737C52.5857 54.4 53.7377 54.7 54.5297 55.3C55.3217 55.888 55.7177 56.68 55.7177 57.676C55.7177 58.348 55.5617 58.924 55.2497 59.404C54.9377 59.872 54.5177 60.238 53.9897 60.502C53.4737 60.754 52.9097 60.88 52.2977 60.88L52.6217 60.232C53.3297 60.232 53.9657 60.364 54.5297 60.628C55.0937 60.88 55.5377 61.252 55.8617 61.744C56.1977 62.236 56.3657 62.848 56.3657 63.58C56.3657 64.66 55.9517 65.5 55.1237 66.1C54.2957 66.7 53.0657 67 51.4337 67H45.1697ZM47.5097 65.164H51.2897C52.1657 65.164 52.8377 65.02 53.3057 64.732C53.7737 64.444 54.0077 63.982 54.0077 63.346C54.0077 62.722 53.7737 62.266 53.3057 61.978C52.8377 61.678 52.1657 61.528 51.2897 61.528H47.3297V59.71H50.8217C51.6377 59.71 52.2617 59.566 52.6937 59.278C53.1377 58.99 53.3597 58.558 53.3597 57.982C53.3597 57.394 53.1377 56.956 52.6937 56.668C52.2617 56.38 51.6377 56.236 50.8217 56.236H47.5097V65.164Z" fill="#00AEEF"/>
<path d="M48 22.9375C48.625 23.0625 49.3125 23.0625 49.9375 22.9375L50.5 23.875C50.6875 24.1875 51.0625 24.3125 51.4375 24.1875C52.125 23.9375 52.8125 23.5 53.4375 23.0625C53.6875 22.8125 53.8125 22.375 53.625 22.0625L53.0625 21.1875C53.5 20.6875 53.875 20.0625 54.0625 19.4375H55.125C55.5 19.4375 55.8125 19.1875 55.875 18.8125C56 18 56 17.25 55.875 16.5C55.8125 16.125 55.5 15.8125 55.125 15.8125H54.0625C53.875 15.1875 53.5 14.625 53.0625 14.125L53.625 13.25C53.8125 12.875 53.6875 12.5 53.4375 12.25C52.8125 11.75 52.125 11.375 51.4375 11.0625C51.0625 10.9375 50.6875 11.0625 50.5 11.4375L49.9375 12.3125C49.3125 12.1875 48.625 12.1875 48 12.3125L47.4375 11.4375C47.25 11.0625 46.875 10.9375 46.5 11.0625C45.8125 11.375 45.125 11.75 44.5 12.25C44.25 12.5 44.125 12.875 44.3125 13.25L44.875 14.125C44.4375 14.625 44.0625 15.1875 43.875 15.8125H42.8125C42.4375 15.8125 42.125 16.125 42.0625 16.5C41.9375 17.25 41.9375 18.0625 42.0625 18.8125C42.125 19.1875 42.4375 19.4375 42.8125 19.4375H43.875C44.0625 20.0625 44.4375 20.6875 44.875 21.1875L44.3125 22.0625C44.125 22.375 44.25 22.8125 44.5 23.0625C45.125 23.5 45.8125 23.9375 46.5 24.1875C46.875 24.3125 47.25 24.1875 47.4375 23.875L48 22.9375ZM47.3125 19.3125C45.5 16.875 48.1875 14.125 50.625 16C52.5 18.375 49.75 21.125 47.3125 19.3125ZM40.125 28.9375C40.375 27.625 40.375 26.25 40.125 24.9375L42.25 23.875C42.875 23.5 43.125 22.75 42.875 22.0625C42.3125 20.5625 41.25 19.1875 40.1875 17.9375C39.75 17.375 38.9375 17.25 38.3125 17.625L36.5 18.6875C35.5 17.8125 34.3125 17.125 33.0625 16.6875V14.625C33.0625 13.875 32.5625 13.25 31.8125 13.125C30.25 12.875 28.625 12.875 27.0625 13.125C26.375 13.25 25.875 13.875 25.875 14.625V16.6875C24.5625 17.125 23.4375 17.8125 22.4375 18.6875L20.625 17.625C19.9375 17.25 19.1875 17.4375 18.6875 17.9375C17.6875 19.1875 16.625 20.5625 16.0625 22.0625C15.8125 22.75 16.0625 23.5 16.75 23.875L18.8125 24.9375C18.5625 26.25 18.5625 27.625 18.8125 28.9375L16.75 29.9375C16.0625 30.3125 15.8125 31.125 16.0625 31.75C16.625 33.3125 17.6875 34.6875 18.6875 35.875C19.1875 36.4375 20 36.5625 20.625 36.1875L22.4375 35.1875C23.4375 36 24.5625 36.6875 25.875 37.125V39.25C25.875 40 26.375 40.625 27.125 40.75C28.6875 41 30.3125 41 31.8125 40.75C32.5625 40.625 33.0625 40 33.0625 39.25V37.125C34.3125 36.6875 35.5 36 36.5 35.1875L38.3125 36.25C38.9375 36.5625 39.75 36.4375 40.1875 35.875C41.25 34.6875 42.3125 33.3125 42.875 31.75C43.125 31.0625 42.875 30.3125 42.25 29.9375L40.125 28.9375ZM32.75 30.25C27.9375 33.9375 22.4375 28.4375 26.1875 23.625C31 19.9375 36.4375 25.4375 32.75 30.25ZM48 41.625C48.625 41.75 49.3125 41.75 49.9375 41.625L50.5 42.5625C50.6875 42.875 51.0625 43 51.4375 42.875C52.125 42.625 52.8125 42.1875 53.4375 41.6875C53.6875 41.5 53.8125 41.0625 53.625 40.75L53.0625 39.8125C53.5 39.3125 53.875 38.75 54.0625 38.125H55.125C55.5 38.125 55.8125 37.875 55.875 37.5C56 36.6875 56 35.9375 55.875 35.1875C55.8125 34.8125 55.5 34.5 55.125 34.5H54.0625C53.875 33.875 53.5 33.3125 53.0625 32.8125L53.625 31.9375C53.8125 31.5625 53.6875 31.1875 53.4375 30.9375C52.8125 30.4375 52.125 30.0625 51.4375 29.75C51.0625 29.625 50.6875 29.75 50.5 30.125L49.9375 31C49.3125 30.875 48.625 30.875 48 31L47.4375 30.125C47.25 29.75 46.875 29.625 46.5 29.75C45.8125 30.0625 45.125 30.4375 44.5 30.9375C44.25 31.1875 44.125 31.5625 44.3125 31.9375L44.875 32.8125C44.4375 33.3125 44.0625 33.875 43.875 34.5H42.8125C42.4375 34.5 42.125 34.8125 42.0625 35.1875C41.9375 35.9375 41.9375 36.75 42.0625 37.5C42.125 37.875 42.4375 38.125 42.8125 38.125H43.875C44.0625 38.75 44.4375 39.3125 44.875 39.8125L44.3125 40.75C44.125 41.0625 44.25 41.5 44.5 41.6875C45.125 42.1875 45.8125 42.625 46.5 42.875C46.875 43 47.25 42.875 47.4375 42.5625L48 41.625ZM47.3125 37.9375C45.5 35.5625 48.1875 32.8125 50.625 34.6875C52.5 37.0625 49.75 39.8125 47.3125 37.9375Z" fill="#00AEEF"/>
<path d="M7 4H67V0H7V4ZM70 7V67H74V7H70ZM67 70H7V74H67V70ZM4 67V7H0V67H4ZM7 70C5.34315 70 4 68.6569 4 67H0C0 70.866 3.13401 74 7 74V70ZM70 67C70 68.6569 68.6569 70 67 70V74C70.866 74 74 70.866 74 67H70ZM67 4C68.6569 4 70 5.34315 70 7H74C74 3.13401 70.866 0 67 0V4ZM7 0C3.13401 0 0 3.13401 0 7H4C4 5.34315 5.34315 4 7 4V0Z" fill="#33BEF2"/>
</svg>
