<svg width="40" height="30" viewBox="0 0 40 30" fill="none" xmlns="http://www.w3.org/2000/svg">
<path d="M9.31278 17.232L7.29677 15.048H13.3448V18.03H0.870774V15.048H7.50677L5.49077 17.232V1.944L7.12877 3.582H1.20677V0.599998H9.31278V17.232ZM7.38077 30L27.4568 0.599998H31.5308L11.4548 30H7.38077ZM25.0628 30V27.648L32.5808 21.096C33.5048 20.256 34.1068 19.598 34.3868 19.122C34.6948 18.618 34.8488 18.142 34.8488 17.694C34.8488 17.05 34.5548 16.518 33.9668 16.098C33.4068 15.65 32.4968 15.426 31.2368 15.426C30.2848 15.426 29.4308 15.58 28.6748 15.888C27.9188 16.196 27.3168 16.658 26.8688 17.274L24.2228 15.384C24.9228 14.432 25.8888 13.676 27.1208 13.116C28.3528 12.556 29.8228 12.276 31.5308 12.276C33.7988 12.276 35.5488 12.766 36.7808 13.746C38.0128 14.726 38.6288 15.958 38.6288 17.442C38.6288 18.282 38.4188 19.094 37.9988 19.878C37.6068 20.662 36.7388 21.642 35.3948 22.818L29.0528 28.362L28.1708 27.018H39.3428V30H25.0628Z" fill="white"/>
</svg>
